<?xml version="1.0" encoding="utf-8"?>
<svg xmlns="http://www.w3.org/2000/svg">
<symbol id="close" viewBox="0 0 16 16"><path d="m9.06 8 2.97-2.969a.75.75 0 0 0-1.061-1.062L8 6.938l-2.969-2.97A.751.751 0 1 0 3.97 5.032L6.938 8l-2.97 2.969a.751.751 0 1 0 1.063 1.062l2.97-2.968 2.968 2.968a.751.751 0 0 0 1.062-1.062z"/>
</symbol>
<symbol id="create-video" viewBox="0 0 28 28"><path fill-rule="evenodd" d="M21.644 16.828v-5.824L26.6 8.008v11.816l-4.956-2.996Zm-2.212 4.48H2.912c-.84 0-1.512-.644-1.512-1.456V8.148c0-.812.672-1.456 1.512-1.456h16.52c.84 0 1.512.644 1.512 1.456v11.676c0 .84-.672 1.484-1.512 1.484ZM17.92 9.8a.562.562 0 0 0-.56-.56h-3.248a.562.562 0 0 0-.56.56v.56c0 .308.252.56.56.56h3.22c.308 0 .56-.252.56-.56V9.8h.028Z" clip-rule="evenodd"/>
</symbol>
<symbol id="invoice" viewBox="0 0 28 28"><path d="m23.931 6.694-5.25-5.25a.411.411 0 0 0-.306-.131H5.626A1.698 1.698 0 0 0 3.937 3v8.374a.438.438 0 1 0 .876 0V3.001a.814.814 0 0 1 .813-.813h12.312V7a.438.438 0 0 0 .437.438h4.813v17.56a.813.813 0 0 1-.814.814H5.626A.814.814 0 0 1 4.812 25v-2.25a.437.437 0 1 0-.875 0v2.249a1.698 1.698 0 0 0 1.69 1.689h16.747a1.697 1.697 0 0 0 1.689-1.69V7a.411.411 0 0 0-.132-.306Zm-5.119-3.885 3.754 3.754h-3.753V2.809Z"/><path d="M11.078 15.496h-.77v3.124h.875c.46.03.914-.11 1.277-.394a1.506 1.506 0 0 0 .438-1.163c-.027-1.05-.648-1.567-1.82-1.567Zm-4.454-.017h-.788v1.829h.875a1.164 1.164 0 0 0 .875-.245.998.998 0 0 0 .29-.718.762.762 0 0 0-.298-.674 1.751 1.751 0 0 0-.954-.192Z"/><path d="M20.563 20.02v-5.915a1.409 1.409 0 0 0-1.418-1.418H3.605a1.409 1.409 0 0 0-1.417 1.418v5.915a1.41 1.41 0 0 0 1.417 1.417h15.54a1.41 1.41 0 0 0 1.418-1.417ZM8.137 17.622a2.38 2.38 0 0 1-1.488.385h-.814v1.34h-.77v-4.568h1.567a2.284 2.284 0 0 1 1.513.402 1.487 1.487 0 0 1 .482 1.225 1.47 1.47 0 0 1-.49 1.216Zm4.873 1.103a2.747 2.747 0 0 1-1.96.621H9.538V14.78h1.566a2.686 2.686 0 0 1 1.881.603 2.117 2.117 0 0 1 .665 1.654 2.265 2.265 0 0 1-.639 1.689Zm4.664-3.229h-2.266v1.26h2.021v.744h-2.021v1.881h-.77V14.78h3.045l-.009.717Z"/>
</symbol>
<symbol id="saved-videos" viewBox="0 0 30 30"><path d="M22.04 1.448c0-.704-.704-1.408-1.408-1.408H9.368C8.664.04 7.96.744 7.96 1.448V1.8h14.08v-.352Zm3.52 3.52c0-.704-.704-1.408-1.408-1.408H5.848c-.704 0-1.408.704-1.408 1.408v.352h21.12v-.352ZM11.48 23.976l8.8-5.456-8.8-5.456v10.912Z"/><path d="M25.208 7.08H4.616C2.68 7.08.92 8.84.92 10.776v15.488c0 1.936 1.76 3.696 3.696 3.696h20.768c1.936 0 3.696-1.76 3.696-3.872V10.776c0-1.936-1.76-3.696-3.872-3.696Zm1.936 3.696v15.488c0 1.056-.88 1.936-1.936 1.936H4.616c-1.056 0-1.936-.88-1.936-2.112V10.776c0-1.056.88-1.936 1.936-1.936h20.768c1.056 0 1.936.88 1.76 1.936Z"/>
</symbol>
<symbol id="tick" viewBox="0 0 16 16"><g clip-path="url(#a)"><path d="M6.807 12a1.06 1.06 0 0 1-.777-.316l-2.5-2.698a.746.746 0 0 1-.165-.28.655.655 0 0 1-.023-.31.705.705 0 0 1 .125-.293.876.876 0 0 1 .253-.232 1.07 1.07 0 0 1 .342-.136 1.186 1.186 0 0 1 .74.084c.11.053.206.123.283.206L6.73 9.8l4.133-5.424a.993.993 0 0 1 .608-.354 1.16 1.16 0 0 1 .736.1c.457.231.597.723.312 1.097l-4.884 6.406a.912.912 0 0 1-.335.267c-.137.065-.29.102-.449.108h-.044Z"/></g><defs><clipPath id="a"><path d="M0 0h9.92v8.32H0z" transform="translate(3.04 3.84)"/></clipPath></defs>
</symbol></svg>