<?xml version="1.0" encoding="utf-8"?>
<svg xmlns="http://www.w3.org/2000/svg">
<symbol id="create-video" viewBox="0 0 28 28"><path fill-rule="evenodd" d="M21.644 16.828v-5.824L26.6 8.008v11.816l-4.956-2.996Zm-2.212 4.48H2.912c-.84 0-1.512-.644-1.512-1.456V8.148c0-.812.672-1.456 1.512-1.456h16.52c.84 0 1.512.644 1.512 1.456v11.676c0 .84-.672 1.484-1.512 1.484ZM17.92 9.8a.562.562 0 0 0-.56-.56h-3.248a.562.562 0 0 0-.56.56v.56c0 .308.252.56.56.56h3.22c.308 0 .56-.252.56-.56V9.8h.028Z" clip-rule="evenodd"/>
</symbol>
<symbol id="saved-videos" viewBox="0 0 30 30"><path d="M22.04 1.448c0-.704-.704-1.408-1.408-1.408H9.368C8.664.04 7.96.744 7.96 1.448V1.8h14.08v-.352Zm3.52 3.52c0-.704-.704-1.408-1.408-1.408H5.848c-.704 0-1.408.704-1.408 1.408v.352h21.12v-.352ZM11.48 23.976l8.8-5.456-8.8-5.456v10.912Z"/><path d="M25.208 7.08H4.616C2.68 7.08.92 8.84.92 10.776v15.488c0 1.936 1.76 3.696 3.696 3.696h20.768c1.936 0 3.696-1.76 3.696-3.872V10.776c0-1.936-1.76-3.696-3.872-3.696Zm1.936 3.696v15.488c0 1.056-.88 1.936-1.936 1.936H4.616c-1.056 0-1.936-.88-1.936-2.112V10.776c0-1.056.88-1.936 1.936-1.936h20.768c1.056 0 1.936.88 1.76 1.936Z"/>
</symbol></svg>